<svg width="19" height="18" viewBox="0 0 19 18" version="1.1" xmlns="http://www.w3.org/2000/svg" xmlns:xlink="http://www.w3.org/1999/xlink">
<title>settings</title>
<desc>Created using Figma</desc>
<g id="Canvas" transform="matrix(0.5 0 0 0.5 -10323 475)">
<g id="settings">
<g id="settings">
<g id="Vector">
<use xlink:href="#path0_fill" transform="translate(20646 -950)" fill="#11A0F8"/>
</g>
<g id="Vector">
<use xlink:href="#path1_fill" transform="translate(20656.1 -939.876)" fill="#11A0F8"/>
</g>
<g id="Vector">
<use xlink:href="#path2_fill" transform="translate(20659.5 -936.501)" fill="#11A0F8"/>
</g>
</g>
</g>
</g>
<defs>
<path id="path0_fill" d="M 34.1909 14.2632L 30.7438 13.5724C 30.5706 13.074 30.3658 12.5903 30.1397 12.1223L 32.0928 9.19266C 32.6879 8.30051 32.5698 7.11135 31.8115 6.3542L 29.6469 4.18963C 29.2115 3.75424 28.6366 3.53036 28.0539 3.53036C 27.623 3.53036 27.1876 3.65411 26.8085 3.90837L 23.8789 5.86031C 23.4086 5.63305 22.9248 5.43054 22.4265 5.25729L 21.7357 1.80906C 21.5264 0.756024 20.6016 1.06873e-10 19.5295 1.06873e-10L 16.4694 1.06873e-10C 15.3972 1.06873e-10 14.4736 0.757149 14.2632 1.80906L 13.5724 5.25729C 13.074 5.43054 12.5903 5.63418 12.1223 5.86031L 9.19379 3.90837C 8.8124 3.65411 8.37814 3.53036 7.94612 3.53036C 7.36448 3.53036 6.78959 3.75424 6.3542 4.18963L 4.19076 6.3542C 3.43248 7.11247 3.31435 8.30051 3.9095 9.19266L 5.86143 12.1223C 5.63418 12.5914 5.43167 13.0752 5.25841 13.5735L 1.80906 14.2632C 0.757149 14.4736 0 15.3972 0 16.4694L 0 19.5295C 0 20.6016 0.757149 21.5264 1.80906 21.7357L 5.25729 22.4276C 5.43054 22.926 5.63418 23.4097 5.86031 23.8777L 3.9095 26.8073C 3.31435 27.6995 3.43248 28.8887 4.19076 29.6458L 6.35532 31.8104C 6.79071 32.2458 7.36561 32.4696 7.94725 32.4696C 8.37926 32.4696 8.81465 32.3448 9.19379 32.0916L 12.1234 30.1386C 12.5925 30.3669 13.0763 30.5695 13.5747 30.7427L 14.2643 34.1898C 14.4747 35.2429 15.3984 36 16.4705 36L 19.5306 36C 20.6028 36 21.5275 35.2417 21.7368 34.1898L 22.4287 30.7427C 22.9271 30.5695 23.4109 30.3647 23.8789 30.1386L 26.8085 32.0916C 27.1887 32.3448 27.6241 32.4696 28.0539 32.4696C 28.6366 32.4696 29.2115 32.2458 29.6469 31.8104L 31.8115 29.6458C 32.5698 28.8875 32.6879 27.6995 32.0928 26.8073L 30.1397 23.8777C 30.3681 23.4075 30.5706 22.9237 30.7438 22.4253L 34.1909 21.7357C 35.2429 21.5275 36.0011 20.6016 36.0011 19.5295L 36.0011 16.4694C 36.0011 15.3972 35.2429 14.4736 34.1909 14.2632ZM 30.3017 20.2203C 29.5198 20.3766 28.8797 20.9347 28.6186 21.6884C 28.4735 22.1036 28.3048 22.5063 28.1158 22.8967C 27.7659 23.6156 27.8255 24.4639 28.2676 25.1265L 30.2207 28.0561L 28.0561 30.2207L 25.1265 28.2676C 24.7508 28.0168 24.3154 27.8896 23.8789 27.8896C 23.5447 27.8896 23.2084 27.9639 22.899 28.1135C 22.5075 28.3025 22.1058 28.4735 21.6884 28.6186C 20.9369 28.8797 20.3789 29.5198 20.2225 30.3017L 19.5306 33.7511L 16.4705 33.7511L 15.7809 30.3017C 15.6245 29.5198 15.0665 28.8797 14.3138 28.6186C 13.8987 28.4735 13.4948 28.3048 13.1044 28.1158C 12.7939 27.9639 12.4586 27.8896 12.1234 27.8896C 11.6857 27.8896 11.2515 28.0168 10.8757 28.2676L 7.94612 30.2207L 5.78156 28.0561L 7.73349 25.1265C 8.17563 24.4628 8.23301 23.6145 7.88762 22.899C 7.69862 22.5075 7.52874 22.1058 7.38361 21.6884C 7.1226 20.9369 6.48133 20.3789 5.70055 20.2225L 2.25232 19.5306L 2.25007 16.4694L 5.69943 15.7797C 6.4802 15.6234 7.12147 15.0653 7.38248 14.3127C 7.52761 13.8976 7.69524 13.4937 7.88537 13.1033C 8.23413 12.3855 8.17563 11.5372 7.73237 10.8746L 5.78156 7.945L 7.945 5.78043L 10.8746 7.73237C 11.2504 7.98325 11.6857 8.11038 12.1223 8.11038C 12.4564 8.11038 12.7916 8.03613 13.1022 7.8865C 13.4925 7.69749 13.8953 7.52761 14.3116 7.38248C 15.0642 7.12147 15.6222 6.4802 15.7786 5.69943L 16.4694 2.2512L 19.5295 2.25007L 20.2191 5.69943C 20.3755 6.4802 20.9335 7.12147 21.6873 7.38248C 22.1024 7.52761 22.5052 7.69524 22.8956 7.88537C 23.2072 8.03613 23.5414 8.11038 23.8777 8.11038C 24.3154 8.11038 24.7496 7.98325 25.1254 7.73237L 28.055 5.78043L 30.2196 7.945L 28.2665 10.8746C 27.8244 11.5384 27.7681 12.3855 28.1124 13.1022C 28.3014 13.4925 28.4724 13.8953 28.6175 14.3116C 28.8785 15.0642 29.5187 15.6222 30.3006 15.7786L 33.7477 16.4694L 33.7511 19.5295L 30.3017 20.2203Z"/>
<path id="path1_fill" d="M 7.87525 4.54917e-07C 3.52699 4.54917e-07 0 3.52698 0 7.87525C 0 12.2246 3.52699 15.7505 7.87525 15.7505C 12.2235 15.7505 15.7505 12.2235 15.7505 7.87525C 15.7505 3.52698 12.2235 4.54917e-07 7.87525 4.54917e-07ZM 7.87525 14.7672C 4.07038 14.7672 0.984406 11.6801 0.984406 7.87637C 0.984406 4.0715 4.07038 0.985531 7.87525 0.985531C 11.679 0.985531 14.7661 4.0715 14.7661 7.87637C 14.7661 11.6801 11.679 14.7672 7.87525 14.7672Z"/>
<path id="path2_fill" d="M 4.50014 4.54917e-07C 2.01381 4.54917e-07 0 2.01381 0 4.50014C 0 6.98534 2.01381 9.00028 4.50014 9.00028C 6.98534 9.00028 9.00028 6.98534 9.00028 4.50014C 9.00028 2.01494 6.98534 4.54917e-07 4.50014 4.54917e-07ZM 4.50014 7.87637C 2.63708 7.87637 1.12504 6.36433 1.12504 4.50127C 1.12504 2.63821 2.63708 1.12616 4.50014 1.12616C 6.3632 1.12616 7.87525 2.63821 7.87525 4.50127C 7.87525 6.36433 6.3632 7.87637 4.50014 7.87637Z"/>
</defs>
</svg>
