<svg width="16" height="14" viewBox="0 0 16 14" version="1.1" xmlns="http://www.w3.org/2000/svg" xmlns:xlink="http://www.w3.org/1999/xlink">
<title>stack</title>
<desc>Created using Figma</desc>
<g id="Canvas" transform="matrix(0.5 0 0 0.5 -10324 633)">
<g id="stack">
<g id="stack">
<g id="Vector">
<use xlink:href="#path0_fill" transform="translate(20648 -1266)" fill="#65748A"/>
</g>
<g id="Vector">
<use xlink:href="#path1_fill" transform="translate(20651.8 -1262)" fill="#65748A"/>
</g>
</g>
</g>
</g>
<defs>
<path id="path0_fill" d="M 31.924 16.455L 27.922 1.449C 27.68 0.596 26.889 0 26 0L 16 0L 6 0C 5.11 0 4.32 0.596 4.078 1.449L 0.076 16.455C 0.025 16.637 0 16.82 0 17L 0 24C 0 26.209 1.791 28 4 28L 28 28C 30.209 28 32 26.209 32 24L 32 17C 32 16.82 31.975 16.637 31.924 16.455ZM 30 24C 30 25.102 29.102 26 28 26L 4 26C 2.897 26 2 25.102 2 24L 2 17L 6.001 1.999L 25.998 1.999L 30 17L 30 24Z"/>
<path id="path1_fill" d="M 19.9293 0L 4.44529 0C 3.99229 0 3.59529 0.305 3.47829 0.743L 0.0332932 12.743C -0.0457068 13.044 0.0172932 13.364 0.207293 13.61C 0.397293 13.856 0.689293 14 0.999293 14L 3.90529 14L 5.04629 14L 5.56729 14L 7.01429 16.895C 7.35429 17.572 8.04629 18 8.80429 18L 15.5703 18C 16.3283 18 17.0193 17.572 17.3593 16.895L 18.8063 14L 19.3273 14L 20.4683 14L 23.3743 14C 23.6853 14 23.9783 13.855 24.1673 13.609C 24.3563 13.363 24.4193 13.043 24.3413 12.742L 20.8963 0.742C 20.7793 0.304 20.3823 0 19.9293 0ZM 20.4683 12L 18.8063 12C 18.0443 12 17.3593 12.422 17.0173 13.105L 15.5703 16L 8.80429 16L 7.35729 13.105C 7.01529 12.422 6.33029 12 5.56829 12L 3.90629 12L 1.52129 12L 4.44529 1L 19.9293 1L 22.8533 12L 20.4683 12Z"/>
</defs>
</svg>
