<svg width="16" height="16" viewBox="0 0 16 16" version="1.1" xmlns="http://www.w3.org/2000/svg" xmlns:xlink="http://www.w3.org/1999/xlink">
<title>star</title>
<desc>Created using Figma</desc>
<g id="Canvas" transform="matrix(0.5 0 0 0.5 -10324 514)">
<g id="star">
<g id="star">
<use xlink:href="#path0_fill" transform="translate(20648 -1028)" fill="#65748A"/>
</g>
</g>
</g>
<defs>
<path id="path0_fill" d="M 31.8805 11.557C 31.6035 10.758 30.8925 10.173 30.0365 10.046L 21.7105 8.808L 18.0915 1.294C 17.7105 0.505 16.8955 0 15.9995 0C 15.1035 0 14.2885 0.505 13.9075 1.294L 10.2885 8.808L 1.96152 10.046C 1.10652 10.173 0.395519 10.758 0.119519 11.557C -0.155481 12.358 0.0525187 13.24 0.656519 13.842L 6.75852 19.934L 5.34352 28.385C 5.19952 29.236 5.56852 30.09 6.29152 30.588C 6.68852 30.861 7.15552 31 7.62252 31C 8.00652 31 8.39152 30.906 8.74052 30.719L 15.9995 26.811L 23.2595 30.719C 23.6085 30.906 23.9935 31 24.3765 31C 24.8435 31 25.3105 30.861 25.7085 30.588C 26.4315 30.09 26.7985 29.236 26.6555 28.385L 25.2395 19.934L 31.3435 13.842C 31.9465 13.239 32.1535 12.357 31.8805 11.557ZM 23.5875 18.363C 23.0755 18.873 22.8435 19.592 22.9605 20.297L 24.3765 28.748L 17.1165 24.842C 16.7685 24.654 16.3845 24.561 15.9985 24.561C 15.6145 24.561 15.2295 24.655 14.8815 24.842L 7.62152 28.748L 9.03752 20.297C 9.15552 19.592 8.92352 18.873 8.41152 18.363L 2.30952 12.271L 10.6355 11.031C 11.3965 10.918 12.0515 10.442 12.3785 9.763L 15.9995 2.251L 19.6195 9.764C 19.9475 10.443 20.6015 10.918 21.3615 11.032L 29.6895 12.272L 23.5875 18.363Z"/>
</defs>
</svg>
